<svg width="30" height="30" viewBox="0 0 59 59" fill="none" xmlns="http://www.w3.org/2000/svg">
<circle cx="31.5" cy="32.5" r="29.5" fill="#498467"/>
<mask id="mask0_382_4685" style="mask-type:alpha" maskUnits="userSpaceOnUse" x="0" y="0" width="64" height="64">
<path d="M60.9939 0C57.8909 1.11515 55.6883 2.06961 55.6883 2.06961L55.2727 2.2497L47.6537 0.034632C48.2216 1.55844 48.4294 2.98944 48.3879 4.31654C50.5905 5.59654 52.0866 6.59255 52.0866 6.59255L52.3636 6.77403L55.7853 5.50649L56.2009 5.66026C56.2009 5.66026 59.1515 6.71723 63.0442 7.77974C63.3628 7.73264 63.6814 7.69247 64 7.65507V0H60.9939ZM33.4407 1.15255C33.316 1.15255 33.2052 1.15394 33.0805 1.1581C29.7558 1.23152 25.1013 2.40208 21.1948 3.67792C16.7342 5.13662 13.1879 6.67567 13.1879 6.67567L12.7723 6.85576L5.16017 4.64069C5.70597 6.12433 5.92208 7.51792 5.89437 8.81593C6.36952 8.77714 6.83636 8.75359 7.29212 8.74667V8.74805C7.84762 8.73974 8.38788 8.75775 8.90736 8.80346C11.3177 9.01957 14.0745 10.0364 16.7065 11.2623C18.0779 11.6918 19.8095 12.2043 21.7212 12.703C26.168 13.8667 31.5706 14.8502 34.826 14.4208C35.2 14.3654 35.6017 14.2823 36.0312 14.1853C35.7818 13.5481 35.4494 12.8831 35.0061 12.1628L33.3437 9.41991L41.7939 11.8857C42.8468 11.3593 43.8719 10.8052 44.8416 10.2566C46.587 9.25784 48.0416 8.34355 49.1082 7.65507C48.0139 6.97628 46.5177 6.08 44.6753 5.09645C41.2952 3.27619 37.084 1.43238 34.4242 1.1955C34.1056 1.16779 33.787 1.15255 33.4407 1.15255ZM38.1368 4.00069C38.4675 4.00069 38.7846 4.13205 39.0184 4.36586C39.2522 4.59967 39.3835 4.91679 39.3835 5.24745C39.3835 5.57811 39.2522 5.89522 39.0184 6.12903C38.7846 6.36284 38.4675 6.4942 38.1368 6.4942C37.8061 6.4942 37.489 6.36284 37.2552 6.12903C37.0214 5.89522 36.89 5.57811 36.89 5.24745C36.89 4.91679 37.0214 4.59967 37.2552 4.36586C37.489 4.13205 37.8061 4.00069 38.1368 4.00069ZM26.9576 4.3955L27.3177 6.86407C25.6831 7.09264 25.3091 7.57887 25.3091 7.60935C25.2952 7.62459 25.2814 7.63983 25.3368 7.79636C25.4061 7.95152 25.5584 8.20641 25.8355 8.46546C26.3619 8.98355 27.2762 9.50719 28.1905 9.73853C29.1048 9.96987 29.9636 9.91584 30.587 9.56814L31.8061 11.7333C30.4623 12.4952 28.9247 12.4952 27.581 12.1628C26.2234 11.8165 24.9905 11.1377 24.09 10.2483C23.6329 9.80502 23.2589 9.30632 23.0234 8.71203C22.7879 8.11775 22.7186 7.38493 22.9818 6.70892C23.5082 5.3555 24.9351 4.67948 26.9576 4.3955ZM64 10.1971C61.0216 10.5835 57.503 11.5255 54.4416 12.5229C49.981 13.9775 46.4346 15.529 46.4346 15.529L46.0191 15.6952L38.4139 13.4926C39.1065 15.4043 39.2727 17.1636 39.0511 18.7567C38.8987 19.9481 38.5662 21.0286 38.1645 22.0537L46.5316 18.9506L46.9472 19.103C46.9472 19.103 50.5074 20.3913 54.968 21.5411C57.8632 22.303 61.1463 22.9818 64 23.245V21.0147C62.9472 21.3056 61.839 21.2502 60.8277 21.0009C59.4701 20.6545 58.2372 19.9758 57.3368 19.0892C56.8797 18.6459 56.5056 18.1472 56.2701 17.5515C56.0346 16.9697 55.9654 16.2355 56.2286 15.5567C56.755 14.1991 58.1818 13.5203 60.2043 13.2433L60.5645 15.7091C58.9299 15.9446 58.5558 16.4294 58.5558 16.4571C58.542 16.471 58.5281 16.4848 58.5835 16.6372C58.6528 16.7896 58.8052 17.0528 59.0823 17.3022C59.6087 17.8286 60.5229 18.3411 61.4372 18.5766C62.3515 18.8121 63.2104 18.7567 63.8338 18.4104L64 18.7013V10.1971ZM7.34476 11.2485C5.24883 11.29 2.62788 11.7749 0 12.4398V14.7255C0.379567 14.6286 0.788225 14.5455 1.22597 14.49L1.57229 16.9558C0.78961 17.0667 0.300606 17.2468 0 17.3853V18.4519C0.0290909 18.4935 0.0595671 18.5212 0.0914285 18.5489C0.621991 19.0753 1.53351 19.5879 2.44779 19.8234C3.36208 20.0589 4.22788 20.0035 4.84433 19.6571L6.07169 21.8182C4.72797 22.5801 3.19307 22.5801 1.83827 22.2476C1.18857 22.0814 0.569351 21.832 0 21.5273V23.3143L3.35238 24.2978C4.89281 24.5056 6.35706 24.6303 7.62736 24.6026C9.00433 24.0485 11.29 23.1619 14.1022 22.2476C15.2242 21.8874 16.4017 21.5134 17.5931 21.181C18.1056 20.9039 18.6182 20.6268 19.103 20.3498C20.8485 19.3385 22.303 18.4381 23.3697 17.7455C22.2753 17.0667 20.7792 16.1662 18.9368 15.1827C15.5567 13.368 11.3455 11.5255 8.68571 11.29C8.37264 11.2623 8.04294 11.2485 7.69662 11.2485H7.34476ZM12.3983 14.0883C12.7289 14.0883 13.046 14.2197 13.2799 14.4535C13.5137 14.6873 13.645 15.0044 13.645 15.3351C13.645 15.6657 13.5137 15.9828 13.2799 16.2167C13.046 16.4505 12.7289 16.5818 12.3983 16.5818C12.0676 16.5818 11.7505 16.4505 11.5167 16.2167C11.2829 15.9828 11.1515 15.6657 11.1515 15.3351C11.1515 15.0044 11.2829 14.6873 11.5167 14.4535C11.7505 14.2197 12.0676 14.0883 12.3983 14.0883ZM26.7636 22.0952C23.439 22.1645 18.7844 23.342 14.8779 24.6164C10.4173 26.071 6.86961 27.6225 6.86961 27.6225L6.45541 27.8026L0 25.9048V33.6346L6.96104 31.0442L7.39048 31.1965C7.39048 31.1965 10.9437 32.4848 15.4043 33.6346C19.8511 34.7983 25.2537 35.7818 28.5091 35.3524C31.1273 35.0061 35.2277 33.0667 38.5247 31.1965C40.2701 30.1853 41.7247 29.271 42.7913 28.5922C41.697 27.9134 40.2009 27.013 38.3584 26.0294C34.9784 24.2009 30.7671 22.3723 28.1074 22.1368C27.8026 22.1091 27.4701 22.0952 27.1238 22.0952H26.7636ZM31.8199 24.9351C32.1506 24.9351 32.4677 25.0664 32.7015 25.3002C32.9353 25.534 33.0667 25.8512 33.0667 26.1818C33.0667 26.5125 32.9353 26.8296 32.7015 27.0634C32.4677 27.2972 32.1506 27.4286 31.8199 27.4286C31.4893 27.4286 31.1721 27.2972 30.9383 27.0634C30.7045 26.8296 30.5732 26.5125 30.5732 26.1818C30.5732 25.8512 30.7045 25.534 30.9383 25.3002C31.1721 25.0664 31.4893 24.9351 31.8199 24.9351ZM20.6407 25.3368L21.0009 27.8026C19.3662 28.0381 18.9922 28.5229 18.9922 28.5506C18.9784 28.5645 18.9645 28.5784 19.0199 28.7307C19.0892 28.8831 19.2416 29.1463 19.5186 29.3957C20.045 29.9221 20.9593 30.4346 21.8736 30.6701C22.7879 30.9056 23.6468 30.8502 24.2701 30.5039L25.4892 32.6649C24.1455 33.4268 22.6216 33.4268 21.2641 33.0944C19.9065 32.7481 18.6736 32.0693 17.7732 31.1827C17.316 30.7394 16.942 30.2407 16.7065 29.645C16.471 29.0632 16.4017 28.329 16.6649 27.6502C17.1913 26.2926 18.6182 25.6139 20.6407 25.3368ZM55.619 28.6476C56.3117 30.5593 56.4779 32.3325 56.2563 33.9255C56.1039 35.1169 55.7714 36.1974 55.3697 37.2225L63.7368 34.1195L64 34.2164V30.5455C63.8615 30.6009 63.6398 30.6978 63.6398 30.6978L63.2242 30.8779L55.619 28.6476ZM0 35.1584V48.1385C2.61957 47.626 6.38476 45.8251 9.45455 44.0797C11.2069 43.0684 12.6615 42.1541 13.7281 41.4753C12.6338 40.7965 11.1377 39.8961 9.29939 38.9126C6.29333 37.2918 2.6445 35.671 0 35.1584ZM44.5922 36.3913C41.2675 36.4606 36.613 37.6381 32.7065 38.9126C28.2459 40.3671 24.6996 41.9186 24.6996 41.9186L24.284 42.0987L16.6788 39.8684C17.3714 41.7801 17.5377 43.5532 17.316 45.1463C17.1636 46.3377 16.8312 47.4182 16.4294 48.4433L24.7965 45.3403L25.2121 45.4926C25.2121 45.4926 28.7723 46.781 33.2329 47.9307C37.6797 49.0944 43.0823 50.0779 46.3377 49.6485C48.9558 49.3022 53.0563 47.3628 56.3532 45.4926C58.0987 44.4814 59.5532 43.5671 60.6199 42.8883C59.5255 42.2095 58.0294 41.3091 56.187 40.3255C52.8069 38.5108 48.5957 36.6684 45.9359 36.4329C45.6173 36.4052 45.2987 36.3913 44.9524 36.3913H44.5922ZM2.75671 37.8182C3.08737 37.8182 3.40449 37.9495 3.6383 38.1833C3.87211 38.4172 4.00346 38.7343 4.00346 39.0649C4.00346 39.3956 3.87211 39.7127 3.6383 39.9465C3.40449 40.1803 3.08737 40.3117 2.75671 40.3117C2.42605 40.3117 2.10893 40.1803 1.87512 39.9465C1.64131 39.7127 1.50996 39.3956 1.50996 39.0649C1.50996 38.7343 1.64131 38.4172 1.87512 38.1833C2.10893 37.9495 2.42605 37.8182 2.75671 37.8182ZM49.6485 39.2312C49.9791 39.2312 50.2963 39.3625 50.5301 39.5963C50.7639 39.8301 50.8952 40.1473 50.8952 40.4779C50.8952 40.8086 50.7639 41.1257 50.5301 41.3595C50.2963 41.5933 49.9791 41.7247 49.6485 41.7247C49.3178 41.7247 49.0007 41.5933 48.7669 41.3595C48.5331 41.1257 48.4017 40.8086 48.4017 40.4779C48.4017 40.1473 48.5331 39.8301 48.7669 39.5963C49.0007 39.3625 49.3178 39.2312 49.6485 39.2312ZM38.4693 39.6329L38.8294 42.0987C37.1948 42.3342 36.8208 42.819 36.8208 42.8468C36.8069 42.8606 36.7931 42.8745 36.8485 43.0268C36.9177 43.1792 37.0701 43.4424 37.3472 43.6918C37.8736 44.2182 38.7879 44.7307 39.7022 44.9662C40.6165 45.2017 41.4753 45.1463 42.0987 44.8L43.3177 46.961C41.974 47.7229 40.4502 47.7229 39.0926 47.3905C37.7351 47.0442 36.5022 46.3654 35.6017 45.4788C35.1446 45.0355 34.7706 44.5368 34.5351 43.9411C34.2996 43.3593 34.2303 42.6251 34.4935 41.9463C35.0199 40.5887 36.4468 39.91 38.4693 39.6329ZM55.3281 51.1446C52.0035 51.2139 47.3489 52.3913 43.4424 53.6658C38.9818 55.1203 35.4355 56.6719 35.4355 56.6719L35.0199 56.8519L27.4147 54.6216C27.9827 56.187 28.1905 57.6693 28.1351 59.0268C29.7004 59.8857 31.0996 60.7169 32.1247 61.3541L35.5325 60.0935L35.9481 60.2459C35.9481 60.2459 39.5082 61.5342 43.9688 62.684C45.9082 63.1965 48.0277 63.6675 50.0641 64H58.8468C60.4121 63.5429 62.213 62.7671 64 61.8805V53.6104C61.3403 52.3775 58.5974 51.3524 56.6719 51.1861C56.3532 51.1584 56.0346 51.1446 55.6883 51.1446H55.3281ZM60.3844 53.9844C60.7151 53.9844 61.0322 54.1158 61.266 54.3496C61.4998 54.5834 61.6312 54.9005 61.6312 55.2312C61.6312 55.5618 61.4998 55.8789 61.266 56.1128C61.0322 56.3466 60.7151 56.4779 60.3844 56.4779C60.0538 56.4779 59.7366 56.3466 59.5028 56.1128C59.269 55.8789 59.1377 55.5618 59.1377 55.2312C59.1377 54.9005 59.269 54.5834 59.5028 54.3496C59.7366 54.1158 60.0538 53.9844 60.3844 53.9844ZM49.2052 54.3861L49.5654 56.8519C47.9307 57.0874 47.5567 57.5723 47.5567 57.6C47.5429 57.6138 47.529 57.6277 47.5844 57.7801C47.6537 57.9325 47.8061 58.1957 48.0831 58.445C48.6095 58.9714 49.5238 59.484 50.4381 59.7195C51.3524 59.955 52.2113 59.8996 52.8346 59.5532L54.0537 61.7143C52.71 62.4762 51.1861 62.4762 49.8286 62.1437C48.471 61.7974 47.2381 61.1186 46.3377 60.232C45.8805 59.7887 45.5065 59.29 45.271 58.6944C45.0355 58.1126 44.9662 57.3784 45.2294 56.6996C45.7558 55.342 47.1827 54.6632 49.2052 54.3861ZM14.9333 57.0736C11.6087 57.1429 6.95411 58.3203 3.04623 59.5948C1.96294 59.9411 0.937836 60.3013 0 60.6476V64H4.70303C4.631 63.5567 4.65593 63.0857 4.83048 62.6286C5.3555 61.271 6.79203 60.5922 8.81732 60.3152L9.16364 62.781C7.5387 63.0165 7.17022 63.5013 7.15636 63.529C7.15082 63.5429 7.13004 63.5567 7.19238 63.7091C7.22286 63.7784 7.27827 63.8892 7.35861 64H30.2823C30.5177 63.8476 30.7532 63.7091 30.961 63.5706C29.8667 62.8918 28.3706 61.9913 26.5281 61.0078C23.1481 59.1792 18.9368 57.3506 16.2771 57.1152C15.9584 57.0874 15.6398 57.0736 15.2935 57.0736H14.9333ZM19.9896 59.9134C20.3203 59.9134 20.6374 60.0448 20.8712 60.2786C21.105 60.5124 21.2364 60.8295 21.2364 61.1602C21.2364 61.4908 21.105 61.8079 20.8712 62.0418C20.6374 62.2756 20.3203 62.4069 19.9896 62.4069C19.659 62.4069 19.3418 62.2756 19.108 62.0418C18.8742 61.8079 18.7429 61.4908 18.7429 61.1602C18.7429 60.8295 18.8742 60.5124 19.108 60.2786C19.3418 60.0448 19.659 59.9134 19.9896 59.9134Z" fill="white"/>
</mask>
<g mask="url(#mask0_382_4685)">
<circle cx="31.5" cy="32.5" r="29.5" fill="white"/>
</g>
</svg>
